<?xml version="1.0" encoding="utf-8"?>
<!-- Simplified kidney diagram with labelled regions and simple flow lines -->
<svg xmlns="http://www.w3.org/2000/svg" viewBox="0 0 400 300" aria-label="Detailed kidney">
  <defs>
    <style> .k{fill:#ffd7d7; stroke:#ff6b6b; stroke-width:2} .cortex{fill:#ffefc2} .medulla{fill:#ffd6a5} .ureter{fill:#ffd166} .stream{stroke:#845ec2; stroke-width:4; fill:none; stroke-dasharray:6 6}</style>
  </defs>

  <!-- outer kidney -->
  <g id="kidneyWhole" class="k">
    <path d="M60,150 C60,70 140,30 220,60 C300,90 340,150 300,210 C260,270 140,270 80,230 C60,210 60,170 60,150 Z"/>
  </g>

  <!-- cortex area (outer) -->
  <path id="cortex" d="M85,150 C85,90 150,60 200,75 C250,90 280,140 260,185 C240,220 180,240 120,210 C95,195 88,175 85,150 Z" class="cortex"/>

  <!-- medulla (inner triangles) -->
  <g id="medulla" class="medulla">
    <path d="M150,120 L170,170 L140,200 L130,150 Z"/>
    <path d="M190,130 L210,180 L180,210 L170,160 Z"/>
  </g>

  <!-- renal artery/vein stylized -->
  <g id="blood" class="blood">
    <path id="artery" class="stream blood-stream" d="M10,60 C60,80 100,110 130,140" stroke="#ff6b6b" />
    <path id="vein" class="stream blood-stream" d="M10,90 C60,100 100,130 130,160" stroke="#06d6a0" />
  </g>

  <!-- ureter -->
  <path id="ureter" d="M280,210 C300,220 320,230 330,250" class="ureter" stroke="#ffb703" stroke-width="6" fill="none"/>

  <!-- urine drops that will animate -->
  <g id="urine">
    <circle cx="318" cy="245" r="6" fill="#06d6a0" class="urine-flow" />
    <circle cx="328" cy="255" r="5" fill="#06d6a0" class="urine-flow" style="animation-delay:0.3s" />
  </g>

  <!-- simple labels for Year 9 -->
  <g font-family="Arial" font-size="12" fill="#333">
    <text x="60" y="40">Cortex (outer)</text>
    <text x="200" y="80">Medulla (inner)</text>
    <text x="260" y="200">Ureter (to bladder)</text>
  </g>
</svg>
